<?xml version="1.0" encoding="UTF-8"?>
<svg id="Ebene_1" xmlns="http://www.w3.org/2000/svg" version="1.1" viewBox="0 0 136.2 31">
  <!-- Generator: Adobe Illustrator 30.1.0, SVG Export Plug-In . SVG Version: 2.1.1 Build 136)  -->
  <defs>
    <style>
      .st0 {
        isolation: isolate;
      }

      .st1 {
        fill: #d80b69;
      }

      .st2 {
        fill: #ffd405;
      }
      
    </style>
  </defs>
  <g>
    <polygon class="st1" points="17.7 0 11.6 0 0 9.2 0 24.2 7.6 31.1 21.3 19.2 21.3 13.9 18.4 11.1 15.3 14.1 16.9 15.6 16.9 17.7 7.6 25.7 4.6 23 4.5 10.7 17.7 0"/>
    <polygon class="st2" points="11.1 31.1 17.1 31.1 28.6 22.1 28.6 7 20.9 0 7.3 12.3 7.3 17.7 10.1 20.4 13.2 17.3 11.7 15.8 11.7 13.8 21 5.6 24.3 8.5 24.3 20.6 11.1 31.1"/>
  </g>
  <g class="st0">
    <g class="st0">
      <path class="st1" d="M37.9,17.8c1,1.1,2.3,1.6,3.9,1.6s1.3-.1,1.7-.4c.5-.3.7-.7.7-1.2s-.1-.8-.4-1c-.3-.2-.6-.3-1.1-.3l-2.2-.2c-1,0-1.9-.5-2.5-1.1-.7-.6-1-1.4-1-2.5,0-1.3.5-2.3,1.3-2.9.9-.7,1.9-1,3.2-1s1.1,0,1.5.1c.4,0,.9.2,1.3.3.8.3,1.4.7,2,1.3l-1.5,1.8c-.5-.4-1-.6-1.5-.9-.5-.2-1.1-.3-1.8-.3s-1.3.1-1.6.4c-.3.3-.5.7-.5,1.1,0,.3.1.5.4.7.2.2.7.4,1.3.5l2,.2c1.3,0,2.2.5,2.8,1.2.5.7.8,1.6.8,2.6,0,1.2-.5,2.2-1.5,2.8-.9.7-2.2,1-3.6,1.1-2,0-3.8-.8-5.4-2.3l1.7-1.7Z"/>
      <path class="st1" d="M49.7,5.1h2.5v3.9h1.8v2h-1.8v7.4c0,.6.3,1,.9.9h.9v2.4h-1.3c-.9,0-1.6-.3-2.1-.8-.6-.5-.9-1.3-.9-2.3v-7.6h-1.2v-2h1.2v-3.9Z"/>
      <path class="st1" d="M55.9,15.3c0-1.3.1-2.4.3-3.1.2-.7.6-1.3,1-1.8.3-.4.8-.8,1.4-1.1.6-.3,1.4-.5,2.3-.5,1,0,1.8.2,2.4.5.6.3,1,.7,1.4,1.1.5.5.8,1.1,1,1.8.2.7.3,1.7.3,3.1s0,2.4-.3,3.1c-.2.7-.6,1.3-1,1.8-.2.2-.4.4-.6.5-.2.2-.5.4-.8.5-.6.3-1.4.5-2.4.5-.9,0-1.7-.2-2.3-.5-.6-.3-1.1-.7-1.4-1.1-.5-.5-.8-1.1-1-1.8-.2-.7-.3-1.7-.3-3.1ZM63.5,15.3c0-.9,0-1.6-.1-2,0-.4-.2-.8-.5-1.1-.2-.3-.4-.5-.8-.7-.3-.2-.7-.3-1.2-.3s-.8,0-1.2.3c-.3.2-.6.4-.8.7-.2.3-.4.7-.5,1.1,0,.4-.1,1.1-.1,2s0,1.5.1,1.9c0,.4.2.8.5,1.1.2.2.5.5.8.6.4.2.7.3,1.2.3s.8,0,1.2-.3c.4-.2.6-.4.8-.6.2-.3.4-.7.5-1.1,0-.4.1-1,.1-1.9Z"/>
    </g>
    <g class="st0">
      <path class="st1" d="M69,9h2.5v1.3h0c.8-1,1.9-1.5,3.2-1.5,1,0,1.8.3,2.6,1l-1.8,2.2c-.5-.4-1.1-.6-1.6-.6s-1.2.2-1.6.6c-.5.4-.8,1.1-.8,2v7.6h-2.5v-12.7Z"/>
    </g>
    <g class="st0">
      <path class="st2" d="M84.7,20.5h0c-.2.4-.6.7-1.1,1-.5.2-1.1.3-2,.3-1.4,0-2.4-.4-3.2-1.1-.8-.7-1.2-1.6-1.2-2.7s.3-1.9,1-2.6c.7-.7,1.7-1.1,3-1.1h3.4v-1.3c0-1.1-.8-1.7-2.5-1.6-.6,0-1.1,0-1.5.2-.4.2-.7.4-.9.8l-1.9-1.5c.9-1.3,2.3-1.9,4.1-1.8,1.5,0,2.8.3,3.7.9.9.6,1.4,1.7,1.4,3.3v8.7h-2.5v-1.1ZM84.7,16.3h-3c-1.4,0-2.1.5-2.1,1.5,0,.4.2.8.6,1.1.4.3.9.5,1.8.5,1,0,1.8-.1,2.2-.4.4-.3.6-.9.6-1.8v-.9Z"/>
      <path class="st2" d="M90.8,3.8h2.5v6.5c.4-.4.9-.8,1.5-1.1.5-.3,1.1-.4,1.7-.4,1.5,0,2.6.6,3.3,1.7.3.4.6.9.7,1.6.1.6.2,1.7.2,3.2s0,2.6-.2,3.2c-.1.7-.4,1.2-.7,1.6-.3.5-.8.9-1.3,1.2-.5.3-1.2.5-2,.5-1.3,0-2.3-.5-3.2-1.5v1.3h-2.5V3.8ZM95.7,11.3c-.6,0-1,.1-1.3.4-.3.2-.6.5-.7.9-.2.4-.2.8-.3,1.2,0,.4,0,.9,0,1.4s0,.9,0,1.4c0,.5.1.9.3,1.3.2.4.4.7.7.9.3.2.8.4,1.3.4s1-.1,1.4-.3c.3-.2.6-.5.7-.9.2-.4.3-.8.3-1.3,0-.5,0-.9,0-1.4s0-1,0-1.5c0-.4-.2-.9-.3-1.2-.1-.4-.4-.7-.7-.9-.3-.2-.8-.3-1.4-.3Z"/>
      <path class="st2" d="M103.8,3.8h2.5v14.5c0,.6.3.9.9.9h.9v2.4h-1.1c-.9,0-1.6-.2-2.2-.7-.6-.5-.9-1.3-.9-2.4V3.8Z"/>
      <path class="st2" d="M112.1,16.3c0,1,.3,1.8.9,2.3.5.5,1.2.8,2.1.8s1.9-.4,2.7-1.2l1.8,1.6c-1.3,1.4-2.7,2.1-4.4,2-.6,0-1.3,0-1.9-.3-.3-.1-.6-.2-.9-.4-.3-.2-.6-.3-.9-.6-.5-.5-.9-1.1-1.3-2-.4-.8-.5-1.9-.5-3.2s.2-2.3.5-3.1c.3-.8.7-1.5,1.2-2,.5-.5,1-.9,1.6-1.1.6-.2,1.2-.3,1.8-.3,1.4,0,2.6.5,3.6,1.4,1,1,1.5,2.3,1.5,3.9v2.1h-7.7ZM117.2,14.2c0-1-.3-1.7-.8-2.2-.5-.5-1.1-.7-1.8-.7s-1.4.2-1.8.7c-.5.5-.7,1.3-.8,2.2h5.2Z"/>
    </g>
  </g>
</svg>